# xmcd
#
# Track frame offsets: 
#        150
#        12420
#        29260
#        48027
#        66887
#        88341
#        105608
#        123251
#        140169
#        155858
#        175234
#        189988
#        211279
#
# Disc length: 2907 seconds
#
# Revision: 0
# Processed by: cddbd v1.5.2PL0 Copyright (c) Steve Scherf et al.
# Submitted via: ExactAudioCopyFreeDBPlugin 1.0
#
DISCID=b60b590d
DTITLE=蔡琴 - 蔡琴-老歌精選 1
DYEAR=1999
DGENRE=Blues
TTITLE0=被遺忘的時光
TTITLE1=跟我說愛我
TTITLE2=您的眼神
TTITLE3=想您的時候
TTITLE4=抉擇
TTITLE5=我的思念
TTITLE6=出塞曲
TTITLE7=渡口
TTITLE8=怎麼能
TTITLE9=恰似你的溫柔
TTITLE10=再愛我一次
TTITLE11=謝幕曲
TTITLE12=空白
EXTD=
EXTT0=
EXTT1=
EXTT2=
EXTT3=
EXTT4=
EXTT5=
EXTT6=
EXTT7=
EXTT8=
EXTT9=
EXTT10=
EXTT11=
EXTT12=
PLAYORDER=
